# xmcd
#
# Track frame offsets:
#	150
#	14287
#	26517
#	37335
#	50325
#	59837
#	71462
#	82802
#	92855
#	102527
#	112762
#	122890
#	132910
#	143250
#	152932
#	163277
#	173750
#	183417
#	192270
#	202465
#	211160
#	221190
#	231692
#	243060
#	252602
#	263220
#	273472
#	283797
#	293017
#	303580
#
# Disc length: 4175 seconds
#
# Revision: 1
# Processed by: cddbd v1.5.2PL0 Copyright (c) Steve Scherf et al.
# Submitted via: EasyCDDAExtractor 10.0.5.1
#
DISCID=d4104d1e
DTITLE=Speedy West and Jimmy Bryant - Flamin' Guitars, 1
DYEAR=1997
DGENRE=Country
TTITLE0=Jelly Beans Daddy
TTITLE1=Just Remember
TTITLE2=Boogie Barn Dance
TTITLE3=Gamblin' Money
TTITLE4=Steel Strike
TTITLE5=Bryant's Boogie
TTITLE6=Red Headed Polka
TTITLE7=Railroadin'
TTITLE8=Stainless Steel
TTITLE9=Hub Cap Roll
TTITLE10=T-Bone Rag
TTITLE11=Truck Driver's Ride
TTITLE12=Liberty Bell Polka
TTITLE13=Crackerjack
TTITLE14=Bryant's Shuffle
TTITLE15=Roadside Rag
TTITLE16=Yodeling Guitar
TTITLE17=Georgia Steel Guitar
TTITLE18=Pickin' The Chicken
TTITLE19=Midnight Ramble
TTITLE20=Comin' On
TTITLE21=Lover
TTITLE22=Skiddle-Dee-Boo
TTITLE23=Serenade To A Frog
TTITLE24=Bryant's Bounce
TTITLE25=Opus 1
TTITLE26=Whistle Stop
TTITLE27=Speedin' West
TTITLE28=Hometown Polka
TTITLE29=This Ain't The Blues
EXTD=YEAR: 1997
EXTT0=
EXTT1=
EXTT2=
EXTT3=
EXTT4=
EXTT5=
EXTT6=
EXTT7=
EXTT8=
EXTT9=
EXTT10=
EXTT11=
EXTT12=
EXTT13=
EXTT14=
EXTT15=
EXTT16=
EXTT17=
EXTT18=
EXTT19=
EXTT20=
EXTT21=
EXTT22=
EXTT23=
EXTT24=
EXTT25=
EXTT26=
EXTT27=
EXTT28=
EXTT29=
PLAYORDER=
